<svg id="SvgjsSvg1006" width="1076" height="536.9499969482422" xmlns="http://www.w3.org/2000/svg" version="1.1" xmlns:xlink="http://www.w3.org/1999/xlink" xmlns:svgjs="http://svgjs.com/svgjs"><defs id="SvgjsDefs1007"><marker id="SvgjsMarker1212" markerWidth="16" markerHeight="12" refX="16" refY="6" viewBox="0 0 16 12" orient="auto" markerUnits="userSpaceOnUse" stroke-dasharray="0,0"><path id="SvgjsPath1213" d="M0,2 L14,6 L0,11 L0,2" fill="#5c5c5c" stroke="#5c5c5c" stroke-width="3"></path></marker><marker id="SvgjsMarker1226" markerWidth="16" markerHeight="12" refX="16" refY="6" viewBox="0 0 16 12" orient="auto" markerUnits="userSpaceOnUse" stroke-dasharray="0,0"><path id="SvgjsPath1227" d="M0,2 L14,6 L0,11 L0,2" fill="#5c5c5c" stroke="#5c5c5c" stroke-width="3"></path></marker><marker id="SvgjsMarker1240" markerWidth="16" markerHeight="12" refX="16" refY="6" viewBox="0 0 16 12" orient="auto" markerUnits="userSpaceOnUse" stroke-dasharray="0,0"><path id="SvgjsPath1241" d="M0,2 L14,6 L0,11 L0,2" fill="#5c5c5c" stroke="#5c5c5c" stroke-width="3"></path></marker><marker id="SvgjsMarker1244" markerWidth="16" markerHeight="12" refX="16" refY="6" viewBox="0 0 16 12" orient="auto" markerUnits="userSpaceOnUse" stroke-dasharray="0,0"><path id="SvgjsPath1245" d="M0,2 L14,6 L0,11 L0,2" fill="#5c5c5c" stroke="#5c5c5c" stroke-width="3"></path></marker><marker id="SvgjsMarker1298" markerWidth="16" markerHeight="12" refX="16" refY="6" viewBox="0 0 16 12" orient="auto" markerUnits="userSpaceOnUse" stroke-dasharray="0,0"><path id="SvgjsPath1299" d="M0,2 L14,6 L0,11 L0,2" fill="#5c5c5c" stroke="#5c5c5c" stroke-width="3"></path></marker><marker id="SvgjsMarker1302" markerWidth="16" markerHeight="12" refX="16" refY="6" viewBox="0 0 16 12" orient="auto" markerUnits="userSpaceOnUse" stroke-dasharray="0,0"><path id="SvgjsPath1303" d="M0,2 L14,6 L0,11 L0,2" fill="#5c5c5c" stroke="#5c5c5c" stroke-width="3"></path></marker><marker id="SvgjsMarker1306" markerWidth="16" markerHeight="12" refX="16" refY="6" viewBox="0 0 16 12" orient="auto" markerUnits="userSpaceOnUse" stroke-dasharray="0,0"><path id="SvgjsPath1307" d="M0,2 L14,6 L0,11 L0,2" fill="#5c5c5c" stroke="#5c5c5c" stroke-width="3"></path></marker></defs><rect id="SvgjsRect1008" width="1076" height="536.9499969482422" fill="#ffffff"></rect><g id="SvgjsG1009" transform="translate(585,108.94999694824219)"><path id="SvgjsPath1010" d="M 0 4Q 0 0 4 0L 450 0Q 454 0 454 4L 454 299Q 454 303 450 303L 4 303Q 0 303 0 299Z" stroke-dasharray="10,6" stroke="rgba(115,115,115,0.45)" stroke-width="3" fill-opacity="0.45" fill="#ffffff"></path><g id="SvgjsG1011"><text id="SvgjsText1012" font-family="微软雅黑" text-anchor="middle" font-size="13px" width="444px" fill="#323232" font-weight="400" align="middle" anchor="middle" family="微软雅黑" size="13px" weight="400" font-style="" opacity="0.45" y="12.692857142857143" transform="rotate(0)"><tspan id="SvgjsTspan1013" dy="16" x="227"><tspan id="SvgjsTspan1014" style="text-decoration:;"> </tspan></tspan></text></g></g><g id="SvgjsG1015" transform="translate(124,108.94999694824219)"><path id="SvgjsPath1016" d="M 0 4Q 0 0 4 0L 450 0Q 454 0 454 4L 454 299Q 454 303 450 303L 4 303Q 0 303 0 299Z" stroke-dasharray="10,6" stroke="rgba(115,115,115,0.45)" stroke-width="3" fill-opacity="0.45" fill="#ffffff"></path><g id="SvgjsG1017"><text id="SvgjsText1018" font-family="微软雅黑" text-anchor="middle" font-size="13px" width="444px" fill="#323232" font-weight="400" align="middle" anchor="middle" family="微软雅黑" size="13px" weight="400" font-style="" opacity="0.45" y="12.692857142857143" transform="rotate(0)"><tspan id="SvgjsTspan1019" dy="16" x="227"><tspan id="SvgjsTspan1020" style="text-decoration:;"> </tspan></tspan></text></g></g><g id="SvgjsG1021" transform="translate(239,268.4499969482422)"><path id="SvgjsPath1022" d="M 0 0L 54 0L 54 27L 0 27Z" stroke="rgba(138,138,138,1)" stroke-width="3" fill-opacity="1" fill="#cce5ff"></path><g id="SvgjsG1023"><text id="SvgjsText1024" font-family="微软雅黑" text-anchor="middle" font-size="13px" width="34px" fill="#323232" font-weight="400" align="middle" anchor="middle" family="微软雅黑" size="13px" weight="400" font-style="" opacity="1" y="3.55" transform="rotate(0)"><tspan id="SvgjsTspan1025" dy="16" x="27"><tspan id="SvgjsTspan1026" style="text-decoration:;">Are</tspan></tspan></text></g></g><g id="SvgjsG1027" transform="translate(293,268.4499969482422)"><path id="SvgjsPath1028" d="M 0 0L 54 0L 54 27L 0 27Z" stroke="rgba(138,138,138,1)" stroke-width="3" fill-opacity="1" fill="#cce5ff"></path><g id="SvgjsG1029"><text id="SvgjsText1030" font-family="微软雅黑" text-anchor="middle" font-size="13px" width="34px" fill="#323232" font-weight="400" align="middle" anchor="middle" family="微软雅黑" size="13px" weight="400" font-style="" opacity="1" y="3.55" transform="rotate(0)"><tspan id="SvgjsTspan1031" dy="16" x="27"><tspan id="SvgjsTspan1032" style="text-decoration:;">you</tspan></tspan></text></g></g><g id="SvgjsG1033" transform="translate(347,268.4499969482422)"><path id="SvgjsPath1034" d="M 0 0L 54 0L 54 27L 0 27Z" stroke="rgba(138,138,138,1)" stroke-width="3" fill-opacity="1" fill="#cce5ff"></path><g id="SvgjsG1035"><text id="SvgjsText1036" font-family="微软雅黑" text-anchor="middle" font-size="13px" width="34px" fill="#323232" font-weight="400" align="middle" anchor="middle" family="微软雅黑" size="13px" weight="400" font-style="" opacity="1" y="3.55" transform="rotate(0)"><tspan id="SvgjsTspan1037" dy="16" x="27"><tspan id="SvgjsTspan1038" style="text-decoration:;">OK</tspan></tspan></text></g></g><g id="SvgjsG1039" transform="translate(401,268.4499969482422)"><path id="SvgjsPath1040" d="M 0 0L 54 0L 54 27L 0 27Z" stroke="rgba(138,138,138,1)" stroke-width="3" fill-opacity="1" fill="#cce5ff"></path><g id="SvgjsG1041"><text id="SvgjsText1042" font-family="微软雅黑" text-anchor="middle" font-size="13px" width="34px" fill="#323232" font-weight="400" align="middle" anchor="middle" family="微软雅黑" size="13px" weight="400" font-style="" opacity="1" y="3.55" transform="rotate(0)"><tspan id="SvgjsTspan1043" dy="16" x="27"><tspan id="SvgjsTspan1044" style="text-decoration:;">?</tspan></tspan></text></g></g><g id="SvgjsG1045" transform="translate(520,268.4499969482422)"><path id="SvgjsPath1046" d="M 0 0L 54 0L 54 27L 0 27Z" stroke="rgba(138,138,138,1)" stroke-width="3" fill-opacity="1" fill="#cce5ff"></path><g id="SvgjsG1047"><text id="SvgjsText1048" font-family="微软雅黑" text-anchor="middle" font-size="13px" width="34px" fill="#323232" font-weight="400" align="middle" anchor="middle" family="微软雅黑" size="13px" weight="400" font-style="" opacity="1" y="3.55" transform="rotate(0)"><tspan id="SvgjsTspan1049" dy="16" x="27"><tspan id="SvgjsTspan1050" style="text-decoration:;">I</tspan></tspan></text></g></g><g id="SvgjsG1051" transform="translate(626,268.4499969482422)"><path id="SvgjsPath1052" d="M 0 0L 54 0L 54 27L 0 27Z" stroke="rgba(138,138,138,1)" stroke-width="3" fill-opacity="1" fill="#cce5ff"></path><g id="SvgjsG1053"><text id="SvgjsText1054" font-family="微软雅黑" text-anchor="middle" font-size="13px" width="34px" fill="#323232" font-weight="400" align="middle" anchor="middle" family="微软雅黑" size="13px" weight="400" font-style="" opacity="1" y="3.55" transform="rotate(0)"><tspan id="SvgjsTspan1055" dy="16" x="27"><tspan id="SvgjsTspan1056" style="text-decoration:;">am</tspan></tspan></text></g></g><g id="SvgjsG1057" transform="translate(743,268.4499969482422)"><path id="SvgjsPath1058" d="M 0 0L 54 0L 54 27L 0 27Z" stroke="rgba(138,138,138,1)" stroke-width="3" fill-opacity="1" fill="#cce5ff"></path><g id="SvgjsG1059"><text id="SvgjsText1060" font-family="微软雅黑" text-anchor="middle" font-size="13px" width="34px" fill="#323232" font-weight="400" align="middle" anchor="middle" family="微软雅黑" size="13px" weight="400" font-style="" opacity="1" y="3.55" transform="rotate(0)"><tspan id="SvgjsTspan1061" dy="16" x="27"><tspan id="SvgjsTspan1062" style="text-decoration:;">fine</tspan></tspan></text></g></g><g id="SvgjsG1063" transform="translate(851,268.4499969482422)"><path id="SvgjsPath1064" d="M 0 0L 54 0L 54 27L 0 27Z" stroke="rgba(138,138,138,1)" stroke-width="3" fill-opacity="1" fill="#cce5ff"></path><g id="SvgjsG1065"><text id="SvgjsText1066" font-family="微软雅黑" text-anchor="middle" font-size="13px" width="34px" fill="#323232" font-weight="400" align="middle" anchor="middle" family="微软雅黑" size="13px" weight="400" font-style="" opacity="1" y="3.55" transform="rotate(0)"><tspan id="SvgjsTspan1067" dy="16" x="27"><tspan id="SvgjsTspan1068" style="text-decoration:;">.</tspan></tspan></text></g></g><g id="SvgjsG1069" transform="translate(133,201.4499969482422)"><path id="SvgjsPath1070" d="M 0 0L 54 0L 54 27L 0 27Z" stroke="rgba(138,138,138,1)" stroke-width="3" fill-opacity="1" fill="#cce5ff"></path><g id="SvgjsG1071"><text id="SvgjsText1072" font-family="微软雅黑" text-anchor="middle" font-size="13px" width="34px" fill="#323232" font-weight="400" align="middle" anchor="middle" family="微软雅黑" size="13px" weight="400" font-style="" opacity="1" y="3.55" transform="rotate(0)"><tspan id="SvgjsTspan1073" dy="16" x="27"><tspan id="SvgjsTspan1074" style="text-decoration:;">Li</tspan></tspan></text></g></g><g id="SvgjsG1075" transform="translate(186,201.4499969482422)"><path id="SvgjsPath1076" d="M 0 0L 54 0L 54 27L 0 27Z" stroke="rgba(138,138,138,1)" stroke-width="3" fill-opacity="1" fill="#cce5ff"></path><g id="SvgjsG1077"><text id="SvgjsText1078" font-family="微软雅黑" text-anchor="middle" font-size="13px" width="34px" fill="#323232" font-weight="400" align="middle" anchor="middle" family="微软雅黑" size="13px" weight="400" font-style="" opacity="1" y="3.55" transform="rotate(0)"><tspan id="SvgjsTspan1079" dy="16" x="27"><tspan id="SvgjsTspan1080" style="text-decoration:;">is</tspan></tspan></text></g></g><g id="SvgjsG1081" transform="translate(239,201.4499969482422)"><path id="SvgjsPath1082" d="M 0 0L 54 0L 54 27L 0 27Z" stroke="rgba(138,138,138,1)" stroke-width="3" fill-opacity="1" fill="#cce5ff"></path><g id="SvgjsG1083"><text id="SvgjsText1084" font-family="微软雅黑" text-anchor="middle" font-size="13px" width="34px" fill="#323232" font-weight="400" align="middle" anchor="middle" family="微软雅黑" size="13px" weight="400" font-style="" opacity="1" y="3.55" transform="rotate(0)"><tspan id="SvgjsTspan1085" dy="16" x="27"><tspan id="SvgjsTspan1086" style="text-decoration:;">a</tspan></tspan></text></g></g><g id="SvgjsG1087" transform="translate(293,201.4499969482422)"><path id="SvgjsPath1088" d="M 0 0L 54 0L 54 27L 0 27Z" stroke="rgba(138,138,138,1)" stroke-width="3" fill-opacity="1" fill="#cce5ff"></path><g id="SvgjsG1089"><text id="SvgjsText1090" font-family="微软雅黑" text-anchor="middle" font-size="13px" width="34px" fill="#323232" font-weight="400" align="middle" anchor="middle" family="微软雅黑" size="13px" weight="400" font-style="" opacity="1" y="3.55" transform="rotate(0)"><tspan id="SvgjsTspan1091" dy="16" x="27"><tspan id="SvgjsTspan1092" style="text-decoration:;">good</tspan></tspan></text></g></g><g id="SvgjsG1093" transform="translate(347,201.4499969482422)"><path id="SvgjsPath1094" d="M 0 0L 54 0L 54 27L 0 27Z" stroke="rgba(138,138,138,1)" stroke-width="3" fill-opacity="1" fill="#cce5ff"></path><g id="SvgjsG1095"><text id="SvgjsText1096" font-family="微软雅黑" text-anchor="middle" font-size="13px" width="34px" fill="#323232" font-weight="400" align="middle" anchor="middle" family="微软雅黑" size="13px" weight="400" font-style="" opacity="1" y="3.55" transform="rotate(0)"><tspan id="SvgjsTspan1097" dy="16" x="27"><tspan id="SvgjsTspan1098" style="text-decoration:;">boy</tspan></tspan></text></g></g><g id="SvgjsG1099" transform="translate(401,201.4499969482422)"><path id="SvgjsPath1100" d="M 0 0L 54 0L 54 27L 0 27Z" stroke="rgba(138,138,138,1)" stroke-width="3" fill-opacity="1" fill="#cce5ff"></path><g id="SvgjsG1101"><text id="SvgjsText1102" font-family="微软雅黑" text-anchor="middle" font-size="13px" width="34px" fill="#323232" font-weight="400" align="middle" anchor="middle" family="微软雅黑" size="13px" weight="400" font-style="" opacity="1" y="3.55" transform="rotate(0)"><tspan id="SvgjsTspan1103" dy="16" x="27"><tspan id="SvgjsTspan1104" style="text-decoration:;">.</tspan></tspan></text></g></g><g id="SvgjsG1105" transform="translate(133,268.4499969482422)"><path id="SvgjsPath1106" d="M 0 0L 54 0L 54 27L 0 27Z" stroke="rgba(138,138,138,1)" stroke-width="3" fill-opacity="1" fill="#ffcc99"></path><g id="SvgjsG1107"><text id="SvgjsText1108" font-family="微软雅黑" text-anchor="middle" font-size="13px" width="34px" fill="#323232" font-weight="400" align="middle" anchor="middle" family="微软雅黑" size="13px" weight="400" font-style="" opacity="1" y="3.55" transform="rotate(0)"><tspan id="SvgjsTspan1109" dy="16" x="27"><tspan id="SvgjsTspan1110" style="text-decoration:;">pad</tspan></tspan></text></g></g><g id="SvgjsG1111" transform="translate(186,268.4499969482422)"><path id="SvgjsPath1112" d="M 0 0L 54 0L 54 27L 0 27Z" stroke="rgba(138,138,138,1)" stroke-width="3" fill-opacity="1" fill="#ffcc99"></path><g id="SvgjsG1113"><text id="SvgjsText1114" font-family="微软雅黑" text-anchor="middle" font-size="13px" width="34px" fill="#323232" font-weight="400" align="middle" anchor="middle" family="微软雅黑" size="13px" weight="400" font-style="" opacity="1" y="3.55" transform="rotate(0)"><tspan id="SvgjsTspan1115" dy="16" x="27"><tspan id="SvgjsTspan1116" style="text-decoration:;">pad</tspan></tspan></text></g></g><g id="SvgjsG1117" transform="translate(520,201.4499969482422)"><path id="SvgjsPath1118" d="M 0 0L 54 0L 54 27L 0 27Z" stroke="rgba(138,138,138,1)" stroke-width="3" fill-opacity="1" fill="#cce5ff"></path><g id="SvgjsG1119"><text id="SvgjsText1120" font-family="微软雅黑" text-anchor="middle" font-size="13px" width="34px" fill="#323232" font-weight="400" align="middle" anchor="middle" family="微软雅黑" size="13px" weight="400" font-style="" opacity="1" y="3.55" transform="rotate(0)"><tspan id="SvgjsTspan1121" dy="16" x="27"><tspan id="SvgjsTspan1122" style="text-decoration:;">You</tspan></tspan></text></g></g><g id="SvgjsG1123" transform="translate(626,201.4499969482422)"><path id="SvgjsPath1124" d="M 0 0L 54 0L 54 27L 0 27Z" stroke="rgba(138,138,138,1)" stroke-width="3" fill-opacity="1" fill="#cce5ff"></path><g id="SvgjsG1125"><text id="SvgjsText1126" font-family="微软雅黑" text-anchor="middle" font-size="13px" width="34px" fill="#323232" font-weight="400" align="middle" anchor="middle" family="微软雅黑" size="13px" weight="400" font-style="" opacity="1" y="3.55" transform="rotate(0)"><tspan id="SvgjsTspan1127" dy="16" x="27"><tspan id="SvgjsTspan1128" style="text-decoration:;">are</tspan></tspan></text></g></g><g id="SvgjsG1129" transform="translate(743,201.4499969482422)"><path id="SvgjsPath1130" d="M 0 0L 54 0L 54 27L 0 27Z" stroke="rgba(138,138,138,1)" stroke-width="3" fill-opacity="1" fill="#cce5ff"></path><g id="SvgjsG1131"><text id="SvgjsText1132" font-family="微软雅黑" text-anchor="middle" font-size="13px" width="34px" fill="#323232" font-weight="400" align="middle" anchor="middle" family="微软雅黑" size="13px" weight="400" font-style="" opacity="1" y="3.55" transform="rotate(0)"><tspan id="SvgjsTspan1133" dy="16" x="27"><tspan id="SvgjsTspan1134" style="text-decoration:;">right</tspan></tspan></text></g></g><g id="SvgjsG1135" transform="translate(851,201.4499969482422)"><path id="SvgjsPath1136" d="M 0 0L 54 0L 54 27L 0 27Z" stroke="rgba(138,138,138,1)" stroke-width="3" fill-opacity="1" fill="#cce5ff"></path><g id="SvgjsG1137"><text id="SvgjsText1138" font-family="微软雅黑" text-anchor="middle" font-size="13px" width="34px" fill="#323232" font-weight="400" align="middle" anchor="middle" family="微软雅黑" size="13px" weight="400" font-style="" opacity="1" y="3.55" transform="rotate(0)"><tspan id="SvgjsTspan1139" dy="16" x="27"><tspan id="SvgjsTspan1140" style="text-decoration:;">.</tspan></tspan></text></g></g><g id="SvgjsG1141" transform="translate(25,198.9499969482422)"><path id="SvgjsPath1142" d="M 91 0Q 82 0 82 9L 82 41.5Q 82 50.5 69 50.5Q 82 50.5 82 59.5L 82 92Q 82 101 91 101" stroke="rgba(50,50,50,1)" stroke-width="2" fill="none"></path><path id="SvgjsPath1143" d="M 0 0L 91 0L 91 101L 0 101Z" stroke="none" fill="none"></path><g id="SvgjsG1144"><text id="SvgjsText1145" font-family="Verdana" text-anchor="end" font-size="13px" width="64px" fill="#5c5c5c" font-weight="400" align="middle" anchor="end" family="Verdana" size="13px" weight="400" font-style="" opacity="1" y="32.55" transform="rotate(0)"><tspan id="SvgjsTspan1146" dy="16" x="64"><tspan id="SvgjsTspan1147" style="text-decoration:;">request </tspan></tspan><tspan id="SvgjsTspan1148" dy="16" x="64"><tspan id="SvgjsTspan1149" style="text-decoration:;">batch</tspan></tspan></text></g></g><g id="SvgjsG1150" transform="matrix(-1.8369701465288538e-16,-1,1,-1.8369701465288538e-16,133.04998779296875,331.95001220703125)"><path id="SvgjsPath1151" d="M 9 0L 0 0L 0 322L 9 322" stroke="rgba(92,92,92,0.45)" stroke-width="3" fill="none"></path><path id="SvgjsPath1152" d="M 0 0L 54 0L 54 322L 0 322Z" stroke="none" fill="none"></path><g id="SvgjsG1153"><text id="SvgjsText1154" font-family="Verdana" text-anchor="middle" font-size="12px" width="34px" fill="#323232" font-weight="700" align="middle" anchor="middle" family="Verdana" size="12px" weight="700" font-style="" opacity="0.45" y="151.7" transform="rotate(0)"></text></g></g><g id="SvgjsG1155" transform="matrix(-1.8369701465288538e-16,-1,1,-1.8369701465288538e-16,520.5,331.95001220703125)"><path id="SvgjsPath1156" d="M 3.6666666666666665 0L 0 0L 0 53L 3.6666666666666665 53" stroke="rgba(92,92,92,0.45)" stroke-width="3" fill="none"></path><path id="SvgjsPath1157" d="M 0 0L 22 0L 22 53L 0 53Z" stroke="none" fill="none"></path><g id="SvgjsG1158"><text id="SvgjsText1159" font-family="Verdana" text-anchor="middle" font-size="12px" width="2px" fill="#323232" font-weight="700" align="middle" anchor="middle" family="Verdana" size="12px" weight="700" font-style="" opacity="0.45" y="17.2" transform="rotate(0)"></text></g></g><g id="SvgjsG1160" transform="translate(234.05000000000007,324.9499969482422)"><path id="SvgjsPath1161" d="M 0 0L 120 0L 120 40L 0 40Z" stroke="none" fill="none"></path><g id="SvgjsG1162"><text id="SvgjsText1163" font-family="Verdana" text-anchor="middle" font-size="12px" width="120px" fill="#323232" font-weight="700" align="middle" anchor="middle" family="Verdana" size="12px" weight="700" font-style="" opacity="0.45" y="10.7" transform="rotate(0)"><tspan id="SvgjsTspan1164" dy="15" x="60"><tspan id="SvgjsTspan1165" style="text-decoration:;">prompt</tspan></tspan></text></g></g><g id="SvgjsG1166" transform="translate(487,324.9499969482422)"><path id="SvgjsPath1167" d="M 0 0L 120 0L 120 40L 0 40Z" stroke="none" fill="none"></path><g id="SvgjsG1168"><text id="SvgjsText1169" font-family="Verdana" text-anchor="middle" font-size="12px" width="120px" fill="#323232" font-weight="700" align="middle" anchor="middle" family="Verdana" size="12px" weight="700" font-style="" opacity="0.45" y="10.7" transform="rotate(0)"><tspan id="SvgjsTspan1170" dy="15" x="60"><tspan id="SvgjsTspan1171" style="text-decoration:;">step 1</tspan></tspan></text></g></g><g id="SvgjsG1172" transform="matrix(-1.8369701465288538e-16,-1,1,-1.8369701465288538e-16,626.5,331.95001220703125)"><path id="SvgjsPath1173" d="M 3.6666666666666665 0L 0 0L 0 53L 3.6666666666666665 53" stroke="rgba(92,92,92,0.45)" stroke-width="3" fill="none"></path><path id="SvgjsPath1174" d="M 0 0L 22 0L 22 53L 0 53Z" stroke="none" fill="none"></path><g id="SvgjsG1175"><text id="SvgjsText1176" font-family="Verdana" text-anchor="middle" font-size="12px" width="2px" fill="#323232" font-weight="700" align="middle" anchor="middle" family="Verdana" size="12px" weight="700" font-style="" opacity="0.45" y="17.2" transform="rotate(0)"></text></g></g><g id="SvgjsG1177" transform="translate(593,324.9499969482422)"><path id="SvgjsPath1178" d="M 0 0L 120 0L 120 40L 0 40Z" stroke="none" fill="none"></path><g id="SvgjsG1179"><text id="SvgjsText1180" font-family="Verdana" text-anchor="middle" font-size="12px" width="120px" fill="#323232" font-weight="700" align="middle" anchor="middle" family="Verdana" size="12px" weight="700" font-style="" opacity="0.45" y="10.7" transform="rotate(0)"><tspan id="SvgjsTspan1181" dy="15" x="60"><tspan id="SvgjsTspan1182" style="text-decoration:;">step 2</tspan></tspan></text></g></g><g id="SvgjsG1183" transform="matrix(-1.8369701465288538e-16,-1,1,-1.8369701465288538e-16,743.5,331.95001220703125)"><path id="SvgjsPath1184" d="M 3.6666666666666665 0L 0 0L 0 53L 3.6666666666666665 53" stroke="rgba(92,92,92,0.45)" stroke-width="3" fill="none"></path><path id="SvgjsPath1185" d="M 0 0L 22 0L 22 53L 0 53Z" stroke="none" fill="none"></path><g id="SvgjsG1186"><text id="SvgjsText1187" font-family="Verdana" text-anchor="middle" font-size="12px" width="2px" fill="#323232" font-weight="700" align="middle" anchor="middle" family="Verdana" size="12px" weight="700" font-style="" opacity="0.45" y="17.2" transform="rotate(0)"></text></g></g><g id="SvgjsG1188" transform="translate(710,324.9499969482422)"><path id="SvgjsPath1189" d="M 0 0L 120 0L 120 40L 0 40Z" stroke="none" fill="none"></path><g id="SvgjsG1190"><text id="SvgjsText1191" font-family="Verdana" text-anchor="middle" font-size="12px" width="120px" fill="#323232" font-weight="700" align="middle" anchor="middle" family="Verdana" size="12px" weight="700" font-style="" opacity="0.45" y="10.7" transform="rotate(0)"><tspan id="SvgjsTspan1192" dy="15" x="60"><tspan id="SvgjsTspan1193" style="text-decoration:;">step 3</tspan></tspan></text></g></g><g id="SvgjsG1194" transform="matrix(-1.8369701465288538e-16,-1,1,-1.8369701465288538e-16,851.5,331.95001220703125)"><path id="SvgjsPath1195" d="M 3.6666666666666665 0L 0 0L 0 53L 3.6666666666666665 53" stroke="rgba(92,92,92,0.45)" stroke-width="3" fill="none"></path><path id="SvgjsPath1196" d="M 0 0L 22 0L 22 53L 0 53Z" stroke="none" fill="none"></path><g id="SvgjsG1197"><text id="SvgjsText1198" font-family="Verdana" text-anchor="middle" font-size="12px" width="2px" fill="#323232" font-weight="700" align="middle" anchor="middle" family="Verdana" size="12px" weight="700" font-style="" opacity="0.45" y="17.2" transform="rotate(0)"></text></g></g><g id="SvgjsG1199" transform="translate(818,324.9499969482422)"><path id="SvgjsPath1200" d="M 0 0L 120 0L 120 40L 0 40Z" stroke="none" fill="none"></path><g id="SvgjsG1201"><text id="SvgjsText1202" font-family="Verdana" text-anchor="middle" font-size="12px" width="120px" fill="#323232" font-weight="700" align="middle" anchor="middle" family="Verdana" size="12px" weight="700" font-style="" opacity="0.45" y="10.7" transform="rotate(0)"><tspan id="SvgjsTspan1203" dy="15" x="60"><tspan id="SvgjsTspan1204" style="text-decoration:;">step 4</tspan></tspan></text></g></g><g id="SvgjsG1205" transform="matrix(6.123234262925839e-17,1,-1,6.123234262925839e-17,455.04998779296875,163)"><path id="SvgjsPath1206" d="M 9 0L 0 0L 0 322L 9 322" stroke="rgba(92,92,92,0.45)" stroke-width="3" fill="none"></path><path id="SvgjsPath1207" d="M 0 0L 54 0L 54 322L 0 322Z" stroke="none" fill="none"></path><g id="SvgjsG1208"><text id="SvgjsText1209" font-family="Verdana" text-anchor="middle" font-size="12px" width="34px" fill="#323232" font-weight="700" align="middle" anchor="middle" family="Verdana" size="12px" weight="700" font-style="" opacity="0.45" y="151.7" transform="rotate(0)"></text></g></g><g id="SvgjsG1210"><path id="SvgjsPath1211" d="M293.0500000000002 163.9499969482423L293.0500000000002 133.9499969482423L475.58258683729446 133.9499969482423L475.58258683729446 393.9499969482422L547 393.9499969482422L547 364.9499969482422" stroke="#5c5c5c" stroke-width="3" fill="none" marker-end="url(#SvgjsMarker1212)"></path></g><g id="SvgjsG1214" transform="matrix(6.123234262925839e-17,1,-1,6.123234262925839e-17,573.5,163.9499969482422)"><path id="SvgjsPath1215" d="M 3.6666666666666665 0L 0 0L 0 53L 3.6666666666666665 53" stroke="rgba(92,92,92,0.45)" stroke-width="3" fill="none"></path><path id="SvgjsPath1216" d="M 0 0L 22 0L 22 53L 0 53Z" stroke="none" fill="none"></path><g id="SvgjsG1217"><text id="SvgjsText1218" font-family="Verdana" text-anchor="middle" font-size="12px" width="2px" fill="#323232" font-weight="700" align="middle" anchor="middle" family="Verdana" size="12px" weight="700" font-style="" opacity="0.45" y="17.2" transform="rotate(0)"></text></g></g><g id="SvgjsG1219" transform="matrix(6.123234262925839e-17,1,-1,6.123234262925839e-17,679.5,163.9499969482422)"><path id="SvgjsPath1220" d="M 3.6666666666666665 0L 0 0L 0 53L 3.6666666666666665 53" stroke="rgba(92,92,92,0.45)" stroke-width="3" fill="none"></path><path id="SvgjsPath1221" d="M 0 0L 22 0L 22 53L 0 53Z" stroke="none" fill="none"></path><g id="SvgjsG1222"><text id="SvgjsText1223" font-family="Verdana" text-anchor="middle" font-size="12px" width="2px" fill="#323232" font-weight="700" align="middle" anchor="middle" family="Verdana" size="12px" weight="700" font-style="" opacity="0.45" y="17.2" transform="rotate(0)"></text></g></g><g id="SvgjsG1224"><path id="SvgjsPath1225" d="M546.1151736745886 163.9249969482421L546.1151736745886 133.9249969482421L599.1820612431445 133.9249969482421L599.1820612431445 393.9499969482422L651.7239488117002 393.9499969482422L651.7239488117002 363.9499969482422" stroke="#5c5c5c" stroke-width="3" fill="none" marker-end="url(#SvgjsMarker1226)"></path></g><g id="SvgjsG1228" transform="matrix(6.123234262925839e-17,1,-1,6.123234262925839e-17,796.5,163.9499969482422)"><path id="SvgjsPath1229" d="M 3.6666666666666665 0L 0 0L 0 53L 3.6666666666666665 53" stroke="rgba(92,92,92,0.45)" stroke-width="3" fill="none"></path><path id="SvgjsPath1230" d="M 0 0L 22 0L 22 53L 0 53Z" stroke="none" fill="none"></path><g id="SvgjsG1231"><text id="SvgjsText1232" font-family="Verdana" text-anchor="middle" font-size="12px" width="2px" fill="#323232" font-weight="700" align="middle" anchor="middle" family="Verdana" size="12px" weight="700" font-style="" opacity="0.45" y="17.2" transform="rotate(0)"></text></g></g><g id="SvgjsG1233" transform="matrix(6.123234262925839e-17,1,-1,6.123234262925839e-17,904.5,163.9499969482422)"><path id="SvgjsPath1234" d="M 3.6666666666666665 0L 0 0L 0 53L 3.6666666666666665 53" stroke="rgba(92,92,92,0.45)" stroke-width="3" fill="none"></path><path id="SvgjsPath1235" d="M 0 0L 22 0L 22 53L 0 53Z" stroke="none" fill="none"></path><g id="SvgjsG1236"><text id="SvgjsText1237" font-family="Verdana" text-anchor="middle" font-size="12px" width="2px" fill="#323232" font-weight="700" align="middle" anchor="middle" family="Verdana" size="12px" weight="700" font-style="" opacity="0.45" y="17.2" transform="rotate(0)"></text></g></g><g id="SvgjsG1238"><path id="SvgjsPath1239" d="M651.7239488117002 163.9249969482421L651.7239488117002 134.9249969482421L707.6820612431445 134.9249969482421L707.6820612431445 393.9499969482422L770 393.9499969482422L770 364.9499969482422" stroke="#5c5c5c" stroke-width="3" fill="none" marker-end="url(#SvgjsMarker1240)"></path></g><g id="SvgjsG1242"><path id="SvgjsPath1243" d="M769.471663619744 163.9249969482421L769.471663619744 133.9249969482421L821.2917504570385 133.9249969482421L821.2917504570385 393.9499969482422L878.5868372943328 393.9499969482422L878.5868372943328 363.9499969482422" stroke="#5c5c5c" stroke-width="3" fill="none" marker-end="url(#SvgjsMarker1244)"></path></g><g id="SvgjsG1246" transform="matrix(0.6427876353263855,-0.7660444378852844,0.7660444378852844,0.6427876353263855,151.77891540527344,449.95556640625)"><path id="SvgjsPath1247" d="M 0 8.91L 40.5 8.91L 40.5 0L 54 13.5L 40.5 27L 40.5 18.09L 0 18.09L 0 8.91Z" stroke="rgba(50,50,50,1)" stroke-width="2" fill-opacity="1" fill="#ffb366"></path><g id="SvgjsG1248"><text id="SvgjsText1249" font-family="微软雅黑" text-anchor="middle" font-size="13px" width="54px" fill="#323232" font-weight="400" align="middle" anchor="middle" family="微软雅黑" size="13px" weight="400" font-style="" opacity="1" y="3.5500000000000007" transform="rotate(0)"></text></g></g><g id="SvgjsG1250" transform="matrix(-0.5735764503479004,-0.8191520571708679,0.8191520571708679,-0.5735764503479004,966.90380859375,467.8103942871094)"><path id="SvgjsPath1251" d="M 0 8.91L 40.5 8.91L 40.5 0L 54 13.5L 40.5 27L 40.5 18.09L 0 18.09L 0 8.91Z" stroke="rgba(92,92,92,1)" stroke-width="3" fill-opacity="1" fill="#9999ff"></path><g id="SvgjsG1252"><text id="SvgjsText1253" font-family="微软雅黑" text-anchor="middle" font-size="13px" width="54px" fill="#323232" font-weight="400" align="middle" anchor="middle" family="微软雅黑" size="13px" weight="400" font-style="" opacity="1" y="3.5500000000000007" transform="rotate(0)"></text></g></g><g id="SvgjsG1254" transform="translate(100,471.9499969482422)"><path id="SvgjsPath1255" d="M 0 0L 120 0L 120 40L 0 40Z" stroke="none" fill="none"></path><g id="SvgjsG1256"><text id="SvgjsText1257" font-family="微软雅黑" text-anchor="middle" font-size="14px" width="120px" fill="#003366" font-weight="700" align="middle" anchor="middle" family="微软雅黑" size="14px" weight="700" font-style="" opacity="1" y="8.9" transform="rotate(0)"><tspan id="SvgjsTspan1258" dy="17" x="60"><tspan id="SvgjsTspan1259" style="text-decoration:;">Full Decoding</tspan></tspan></text></g></g><g id="SvgjsG1260" transform="translate(905,471.9499969482422)"><path id="SvgjsPath1261" d="M 0 0L 142.11517367458862 0L 142.11517367458862 40L 0 40Z" stroke="none" fill="none"></path><g id="SvgjsG1262"><text id="SvgjsText1263" font-family="微软雅黑" text-anchor="middle" font-size="14px" width="143px" fill="#9999ff" font-weight="700" align="middle" anchor="middle" family="微软雅黑" size="14px" weight="700" font-style="" opacity="1" y="-0.10000000000000009" transform="rotate(0)"><tspan id="SvgjsTspan1264" dy="17" x="71.5"><tspan id="SvgjsTspan1265" style="text-decoration:;">Incremental </tspan></tspan><tspan id="SvgjsTspan1266" dy="17" x="71.5"><tspan id="SvgjsTspan1267" style="text-decoration:;">Decoding</tspan></tspan></text></g></g><g id="SvgjsG1268" transform="translate(964,268.4499969482422)"><path id="SvgjsPath1269" d="M 0 0L 54 0L 54 27L 0 27Z" stroke="rgba(138,138,138,1)" stroke-width="3" fill-opacity="1" fill="#cce5ff"></path><g id="SvgjsG1270"><text id="SvgjsText1271" font-family="微软雅黑" text-anchor="middle" font-size="13px" width="34px" fill="#323232" font-weight="400" align="middle" anchor="middle" family="微软雅黑" size="13px" weight="400" font-style="" opacity="1" y="3.55" transform="rotate(0)"><tspan id="SvgjsTspan1272" dy="16" x="27"><tspan id="SvgjsTspan1273" style="text-decoration:;">.</tspan></tspan></text></g></g><g id="SvgjsG1274" transform="translate(964,201.4499969482422)"><path id="SvgjsPath1275" d="M 0 0L 54 0L 54 27L 0 27Z" stroke="rgba(138,138,138,1)" stroke-width="3" fill-opacity="1" fill="#cce5ff"></path><g id="SvgjsG1276"><text id="SvgjsText1277" font-family="微软雅黑" text-anchor="middle" font-size="13px" width="34px" fill="#323232" font-weight="400" align="middle" anchor="middle" family="微软雅黑" size="13px" weight="400" font-style="" opacity="1" y="3.55" transform="rotate(0)"><tspan id="SvgjsTspan1278" dy="16" x="27"><tspan id="SvgjsTspan1279" style="text-decoration:;">.</tspan></tspan></text></g></g><g id="SvgjsG1280" transform="matrix(-1.8369701465288538e-16,-1,1,-1.8369701465288538e-16,964.5,322.95001220703125)"><path id="SvgjsPath1281" d="M 3.6666666666666665 0L 0 0L 0 53L 3.6666666666666665 53" stroke="rgba(92,92,92,0.45)" stroke-width="3" fill="none"></path><path id="SvgjsPath1282" d="M 0 0L 22 0L 22 53L 0 53Z" stroke="none" fill="none"></path><g id="SvgjsG1283"><text id="SvgjsText1284" font-family="Verdana" text-anchor="middle" font-size="12px" width="2px" fill="#323232" font-weight="700" align="middle" anchor="middle" family="Verdana" size="12px" weight="700" font-style="" opacity="0.45" y="17.2" transform="rotate(0)"></text></g></g><g id="SvgjsG1285" transform="translate(931,324.9499969482422)"><path id="SvgjsPath1286" d="M 0 0L 120 0L 120 40L 0 40Z" stroke="none" fill="none"></path><g id="SvgjsG1287"><text id="SvgjsText1288" font-family="Verdana" text-anchor="middle" font-size="12px" width="120px" fill="#323232" font-weight="700" align="middle" anchor="middle" family="Verdana" size="12px" weight="700" font-style="" opacity="0.45" y="10.7" transform="rotate(0)"><tspan id="SvgjsTspan1289" dy="15" x="60"><tspan id="SvgjsTspan1290" style="text-decoration:;">step 5</tspan></tspan></text></g></g><g id="SvgjsG1291" transform="matrix(6.123234262925839e-17,1,-1,6.123234262925839e-17,1017.5,163.9499969482422)"><path id="SvgjsPath1292" d="M 3.6666666666666665 0L 0 0L 0 53L 3.6666666666666665 53" stroke="rgba(92,92,92,0.45)" stroke-width="3" fill="none"></path><path id="SvgjsPath1293" d="M 0 0L 22 0L 22 53L 0 53Z" stroke="none" fill="none"></path><g id="SvgjsG1294"><text id="SvgjsText1295" font-family="Verdana" text-anchor="middle" font-size="12px" width="2px" fill="#323232" font-weight="700" align="middle" anchor="middle" family="Verdana" size="12px" weight="700" font-style="" opacity="0.45" y="17.2" transform="rotate(0)"></text></g></g><g id="SvgjsG1296"><path id="SvgjsPath1297" d="M878.5868372943328 163.9249969482421L878.5868372943328 133.9249969482421L930.0559186471664 133.9249969482421L930.0559186471664 394.9499969482422L991 394.9499969482422L991 364.9499969482422" stroke="#5c5c5c" stroke-width="3" fill="none" marker-end="url(#SvgjsMarker1298)"></path></g><g id="SvgjsG1300"><path id="SvgjsPath1301" d="M992.8226691042047 154.9499969482422L992.8226691042047 142.4499969482422L992.8226691042047 142.4499969482422L992.8226691042047 126.94999694824219" stroke="#5c5c5c" stroke-width="3" fill="none" marker-end="url(#SvgjsMarker1302)"></path></g><g id="SvgjsG1304"><path id="SvgjsPath1305" d="M292.8226691042046 394.9499969482422L292.8226691042046 382.4499969482422L292.8226691042046 382.4499969482422L292.8226691042046 366.9499969482422" stroke="#5c5c5c" stroke-width="3" fill="none" marker-end="url(#SvgjsMarker1306)"></path></g><g id="SvgjsG1308" transform="translate(426.5,24.999996948242625)"><path id="SvgjsPath1309" d="M 0 0L 289.5 0L 289.5 45.94999999999956L 0 45.94999999999956Z" stroke="none" fill="none"></path><g id="SvgjsG1310"><text id="SvgjsText1311" font-family="Verdana" text-anchor="middle" font-size="14px" width="290px" fill="#5c5c5c" font-weight="700" align="middle" anchor="middle" family="Verdana" size="14px" weight="700" font-style="" opacity="1" y="11.874999999999782" transform="rotate(0)"><tspan id="SvgjsTspan1312" dy="17" x="145"><tspan id="SvgjsTspan1313" style="text-decoration:;">Joint Decoding During Inference</tspan></tspan></text></g></g></svg>