<svg width="2544" height="1467" xmlns="http://www.w3.org/2000/svg" xmlns:xlink="http://www.w3.org/1999/xlink" overflow="hidden"><defs><clipPath id="clip0"><rect x="2846" y="1828" width="2544" height="1467"/></clipPath><clipPath id="clip1"><rect x="2849" y="1832" width="2538" height="1461"/></clipPath><clipPath id="clip2"><rect x="3067" y="2185" width="2273" height="908"/></clipPath><clipPath id="clip3"><rect x="3067" y="2185" width="2273" height="908"/></clipPath><clipPath id="clip4"><rect x="2849" y="1832" width="2538" height="1461"/></clipPath><clipPath id="clip5"><rect x="2849" y="1832" width="2538" height="1461"/></clipPath><clipPath id="clip6"><rect x="2849" y="1832" width="2538" height="1461"/></clipPath><clipPath id="clip7"><rect x="2849" y="1832" width="2538" height="1461"/></clipPath><clipPath id="clip8"><rect x="2849" y="1832" width="2538" height="1461"/></clipPath><clipPath id="clip9"><rect x="2849" y="1832" width="2538" height="1461"/></clipPath><clipPath id="clip10"><rect x="2849" y="1832" width="2538" height="1461"/></clipPath><clipPath id="clip11"><rect x="2849" y="1832" width="2538" height="1461"/></clipPath><clipPath id="clip12"><rect x="2849" y="1832" width="2538" height="1461"/></clipPath><clipPath id="clip13"><rect x="2849" y="1832" width="2538" height="1461"/></clipPath><clipPath id="clip14"><rect x="2849" y="1832" width="2538" height="1461"/></clipPath><clipPath id="clip15"><rect x="2849" y="1832" width="2538" height="1461"/></clipPath><clipPath id="clip16"><rect x="2849" y="1832" width="2538" height="1461"/></clipPath><clipPath id="clip17"><rect x="2849" y="1832" width="2538" height="1461"/></clipPath><clipPath id="clip18"><rect x="2849" y="1832" width="2538" height="1461"/></clipPath><clipPath id="clip19"><rect x="2849" y="1832" width="2538" height="1461"/></clipPath><clipPath id="clip20"><rect x="2849" y="1832" width="2538" height="1461"/></clipPath><clipPath id="clip21"><rect x="2849" y="1832" width="2538" height="1461"/></clipPath><clipPath id="clip22"><rect x="2849" y="1832" width="2538" height="1461"/></clipPath><clipPath id="clip23"><rect x="2849" y="1832" width="2538" height="1461"/></clipPath><clipPath id="clip24"><rect x="2849" y="1832" width="2538" height="1461"/></clipPath><clipPath id="clip25"><rect x="2849" y="1832" width="2538" height="1461"/></clipPath><clipPath id="clip26"><rect x="2849" y="1832" width="2538" height="1461"/></clipPath><clipPath id="clip27"><rect x="2849" y="1832" width="2538" height="1461"/></clipPath><clipPath id="clip28"><rect x="2849" y="1832" width="2538" height="1461"/></clipPath><clipPath id="clip29"><rect x="2849" y="1832" width="2538" height="1461"/></clipPath><clipPath id="clip30"><rect x="2849" y="1832" width="2538" height="1461"/></clipPath><clipPath id="clip31"><rect x="2849" y="1832" width="2538" height="1461"/></clipPath><clipPath id="clip32"><rect x="2849" y="1832" width="2538" height="1461"/></clipPath><clipPath id="clip33"><rect x="2849" y="1832" width="2538" height="1461"/></clipPath><clipPath id="clip34"><rect x="2849" y="1832" width="2538" height="1461"/></clipPath><clipPath id="clip35"><rect x="2849" y="1832" width="2538" height="1461"/></clipPath><clipPath id="clip36"><rect x="2849" y="1832" width="2538" height="1461"/></clipPath><clipPath id="clip37"><rect x="2849" y="1832" width="2538" height="1461"/></clipPath><clipPath id="clip38"><rect x="2849" y="1832" width="2538" height="1461"/></clipPath><clipPath id="clip39"><rect x="2849" y="1832" width="2538" height="1461"/></clipPath><clipPath id="clip40"><rect x="2849" y="1832" width="2538" height="1461"/></clipPath></defs><g clip-path="url(#clip0)" transform="translate(-2846 -1828)"><rect x="2850" y="1832" width="2538" height="1461" fill="#FFFFFF" fill-opacity="1"/><g clip-path="url(#clip1)"><path d="M3067.5 2989.6 5337.5 2989.6M3067.5 2888.59 5337.5 2888.59M3067.5 2788.59 5337.5 2788.59M3067.5 2687.59 5337.5 2687.59M3067.5 2587.58 5337.5 2587.58M3067.5 2486.58 5337.5 2486.58M3067.5 2386.58 5337.5 2386.58M3067.5 2285.58 5337.5 2285.58M3067.5 2185.5 5337.5 2185.5" stroke="#D9D9D9" stroke-width="3.4375" stroke-linecap="butt" stroke-linejoin="round" stroke-miterlimit="10" stroke-opacity="1" fill="none" fill-rule="nonzero"/></g><g clip-path="url(#clip2)"><path d="M3160.1 2678.09 3245.11 2678.09 3245.11 3090 3160.1 3090ZM3538.12 2635.09 3623.12 2635.09 3623.12 3090 3538.12 3090ZM3917.13 2411.08 4001.13 2411.08 4001.13 3090 3917.13 3090ZM4295.14 2522.08 4380.14 2522.08 4380.14 3090 4295.14 3090ZM4673.15 2477.08 4758.16 2477.08 4758.16 3090 4673.15 3090ZM5052.17 2266.07 5136.17 2266.07 5136.17 3090 5052.17 3090Z" fill="#4472C4" fill-rule="nonzero" fill-opacity="1"/></g><g clip-path="url(#clip3)"><path d="M3268.11 2587.08 3352.11 2587.08 3352.11 3090 3268.11 3090ZM3646.12 2587.08 3731.12 2587.08 3731.12 3090 3646.12 3090ZM4024.13 2587.08 4109.13 2587.08 4109.13 3090 4024.13 3090ZM4403.14 2587.08 4488.15 2587.08 4488.15 3090 4403.14 3090ZM4781.16 2587.08 4866.16 2587.08 4866.16 3090 4781.16 3090ZM5159.17 2587.08 5244.17 2587.08 5244.17 3090 5159.17 3090Z" fill="#ED7D31" fill-rule="nonzero" fill-opacity="1"/></g><g clip-path="url(#clip4)"><path d="M3067.5 3089.5 5337.5 3089.5" stroke="#D9D9D9" stroke-width="3.4375" stroke-linecap="butt" stroke-linejoin="round" stroke-miterlimit="10" stroke-opacity="1" fill="none" fill-rule="evenodd"/></g><g clip-path="url(#clip5)"><text fill="#404040" fill-opacity="1" font-family="Calibri,Calibri_MSFontService,sans-serif" font-style="normal" font-variant="normal" font-weight="400" font-stretch="normal" font-size="41" text-anchor="start" direction="ltr" writing-mode="lr-tb" unicode-bidi="normal" text-decoration="none" transform="matrix(1 0 0 1 3155.43 2646)">0.819</text></g><g clip-path="url(#clip6)"><text fill="#404040" fill-opacity="1" font-family="Calibri,Calibri_MSFontService,sans-serif" font-style="normal" font-variant="normal" font-weight="400" font-stretch="normal" font-size="41" text-anchor="start" direction="ltr" writing-mode="lr-tb" unicode-bidi="normal" text-decoration="none" transform="matrix(1 0 0 1 3533.79 2604)">0.904</text></g><g clip-path="url(#clip7)"><text fill="#404040" fill-opacity="1" font-family="Calibri,Calibri_MSFontService,sans-serif" font-style="normal" font-variant="normal" font-weight="400" font-stretch="normal" font-size="41" text-anchor="start" direction="ltr" writing-mode="lr-tb" unicode-bidi="normal" text-decoration="none" transform="matrix(1 0 0 1 3922.6 2379)">1.35</text></g><g clip-path="url(#clip8)"><text fill="#404040" fill-opacity="1" font-family="Calibri,Calibri_MSFontService,sans-serif" font-style="normal" font-variant="normal" font-weight="400" font-stretch="normal" font-size="41" text-anchor="start" direction="ltr" writing-mode="lr-tb" unicode-bidi="normal" text-decoration="none" transform="matrix(1 0 0 1 4300.96 2490)">1.13</text></g><g clip-path="url(#clip9)"><text fill="#404040" fill-opacity="1" font-family="Calibri,Calibri_MSFontService,sans-serif" font-style="normal" font-variant="normal" font-weight="400" font-stretch="normal" font-size="41" text-anchor="start" direction="ltr" writing-mode="lr-tb" unicode-bidi="normal" text-decoration="none" transform="matrix(1 0 0 1 4679.33 2445)">1.22</text></g><g clip-path="url(#clip10)"><text fill="#404040" fill-opacity="1" font-family="Calibri,Calibri_MSFontService,sans-serif" font-style="normal" font-variant="normal" font-weight="400" font-stretch="normal" font-size="41" text-anchor="start" direction="ltr" writing-mode="lr-tb" unicode-bidi="normal" text-decoration="none" transform="matrix(1 0 0 1 5057.69 2234)">1.64</text></g><g clip-path="url(#clip11)"><text fill="#404040" fill-opacity="1" font-family="Calibri,Calibri_MSFontService,sans-serif" font-style="normal" font-variant="normal" font-weight="400" font-stretch="normal" font-size="41" text-anchor="start" direction="ltr" writing-mode="lr-tb" unicode-bidi="normal" text-decoration="none" transform="matrix(1 0 0 1 3299.72 2555)">1</text></g><g clip-path="url(#clip12)"><text fill="#404040" fill-opacity="1" font-family="Calibri,Calibri_MSFontService,sans-serif" font-style="normal" font-variant="normal" font-weight="400" font-stretch="normal" font-size="41" text-anchor="start" direction="ltr" writing-mode="lr-tb" unicode-bidi="normal" text-decoration="none" transform="matrix(1 0 0 1 3678.08 2555)">1</text></g><g clip-path="url(#clip13)"><text fill="#404040" fill-opacity="1" font-family="Calibri,Calibri_MSFontService,sans-serif" font-style="normal" font-variant="normal" font-weight="400" font-stretch="normal" font-size="41" text-anchor="start" direction="ltr" writing-mode="lr-tb" unicode-bidi="normal" text-decoration="none" transform="matrix(1 0 0 1 4056.45 2555)">1</text></g><g clip-path="url(#clip14)"><text fill="#404040" fill-opacity="1" font-family="Calibri,Calibri_MSFontService,sans-serif" font-style="normal" font-variant="normal" font-weight="400" font-stretch="normal" font-size="41" text-anchor="start" direction="ltr" writing-mode="lr-tb" unicode-bidi="normal" text-decoration="none" transform="matrix(1 0 0 1 4434.81 2555)">1</text></g><g clip-path="url(#clip15)"><text fill="#404040" fill-opacity="1" font-family="Calibri,Calibri_MSFontService,sans-serif" font-style="normal" font-variant="normal" font-weight="400" font-stretch="normal" font-size="41" text-anchor="start" direction="ltr" writing-mode="lr-tb" unicode-bidi="normal" text-decoration="none" transform="matrix(1 0 0 1 4813.17 2555)">1</text></g><g clip-path="url(#clip16)"><text fill="#404040" fill-opacity="1" font-family="Calibri,Calibri_MSFontService,sans-serif" font-style="normal" font-variant="normal" font-weight="400" font-stretch="normal" font-size="41" text-anchor="start" direction="ltr" writing-mode="lr-tb" unicode-bidi="normal" text-decoration="none" transform="matrix(1 0 0 1 5191.53 2555)">1</text></g><g clip-path="url(#clip17)"><text fill="#595959" fill-opacity="1" font-family="Calibri,Calibri_MSFontService,sans-serif" font-style="normal" font-variant="normal" font-weight="400" font-stretch="normal" font-size="41" text-anchor="start" direction="ltr" writing-mode="lr-tb" unicode-bidi="normal" text-decoration="none" transform="matrix(1 0 0 1 3007.97 3100)">0</text></g><g clip-path="url(#clip18)"><text fill="#595959" fill-opacity="1" font-family="Calibri,Calibri_MSFontService,sans-serif" font-style="normal" font-variant="normal" font-weight="400" font-stretch="normal" font-size="41" text-anchor="start" direction="ltr" writing-mode="lr-tb" unicode-bidi="normal" text-decoration="none" transform="matrix(1 0 0 1 2976.67 3000)">0.2</text></g><g clip-path="url(#clip19)"><text fill="#595959" fill-opacity="1" font-family="Calibri,Calibri_MSFontService,sans-serif" font-style="normal" font-variant="normal" font-weight="400" font-stretch="normal" font-size="41" text-anchor="start" direction="ltr" writing-mode="lr-tb" unicode-bidi="normal" text-decoration="none" transform="matrix(1 0 0 1 2976.67 2899)">0.4</text></g><g clip-path="url(#clip20)"><text fill="#595959" fill-opacity="1" font-family="Calibri,Calibri_MSFontService,sans-serif" font-style="normal" font-variant="normal" font-weight="400" font-stretch="normal" font-size="41" text-anchor="start" direction="ltr" writing-mode="lr-tb" unicode-bidi="normal" text-decoration="none" transform="matrix(1 0 0 1 2976.67 2799)">0.6</text></g><g clip-path="url(#clip21)"><text fill="#595959" fill-opacity="1" font-family="Calibri,Calibri_MSFontService,sans-serif" font-style="normal" font-variant="normal" font-weight="400" font-stretch="normal" font-size="41" text-anchor="start" direction="ltr" writing-mode="lr-tb" unicode-bidi="normal" text-decoration="none" transform="matrix(1 0 0 1 2976.67 2698)">0.8</text></g><g clip-path="url(#clip22)"><text fill="#595959" fill-opacity="1" font-family="Calibri,Calibri_MSFontService,sans-serif" font-style="normal" font-variant="normal" font-weight="400" font-stretch="normal" font-size="41" text-anchor="start" direction="ltr" writing-mode="lr-tb" unicode-bidi="normal" text-decoration="none" transform="matrix(1 0 0 1 3007.97 2598)">1</text></g><g clip-path="url(#clip23)"><text fill="#595959" fill-opacity="1" font-family="Calibri,Calibri_MSFontService,sans-serif" font-style="normal" font-variant="normal" font-weight="400" font-stretch="normal" font-size="41" text-anchor="start" direction="ltr" writing-mode="lr-tb" unicode-bidi="normal" text-decoration="none" transform="matrix(1 0 0 1 2976.67 2497)">1.2</text></g><g clip-path="url(#clip24)"><text fill="#595959" fill-opacity="1" font-family="Calibri,Calibri_MSFontService,sans-serif" font-style="normal" font-variant="normal" font-weight="400" font-stretch="normal" font-size="41" text-anchor="start" direction="ltr" writing-mode="lr-tb" unicode-bidi="normal" text-decoration="none" transform="matrix(1 0 0 1 2976.67 2397)">1.4</text></g><g clip-path="url(#clip25)"><text fill="#595959" fill-opacity="1" font-family="Calibri,Calibri_MSFontService,sans-serif" font-style="normal" font-variant="normal" font-weight="400" font-stretch="normal" font-size="41" text-anchor="start" direction="ltr" writing-mode="lr-tb" unicode-bidi="normal" text-decoration="none" transform="matrix(1 0 0 1 2976.67 2296)">1.6</text></g><g clip-path="url(#clip26)"><text fill="#595959" fill-opacity="1" font-family="Calibri,Calibri_MSFontService,sans-serif" font-style="normal" font-variant="normal" font-weight="400" font-stretch="normal" font-size="41" text-anchor="start" direction="ltr" writing-mode="lr-tb" unicode-bidi="normal" text-decoration="none" transform="matrix(1 0 0 1 2976.67 2196)">1.8</text></g><g clip-path="url(#clip27)"><text fill="#595959" fill-opacity="1" font-family="Calibri,Calibri_MSFontService,sans-serif" font-style="normal" font-variant="normal" font-weight="400" font-stretch="normal" font-size="41" text-anchor="start" direction="ltr" writing-mode="lr-tb" unicode-bidi="normal" text-decoration="none" transform="matrix(1 0 0 1 3207.29 3155)">(8,32)</text></g><g clip-path="url(#clip28)"><text fill="#595959" fill-opacity="1" font-family="Calibri,Calibri_MSFontService,sans-serif" font-style="normal" font-variant="normal" font-weight="400" font-stretch="normal" font-size="41" text-anchor="start" direction="ltr" writing-mode="lr-tb" unicode-bidi="normal" text-decoration="none" transform="matrix(1 0 0 1 3585.66 3155)">(8,64)</text></g><g clip-path="url(#clip29)"><text fill="#595959" fill-opacity="1" font-family="Calibri,Calibri_MSFontService,sans-serif" font-style="normal" font-variant="normal" font-weight="400" font-stretch="normal" font-size="41" text-anchor="start" direction="ltr" writing-mode="lr-tb" unicode-bidi="normal" text-decoration="none" transform="matrix(1 0 0 1 3953.57 3155)">(8,128)</text></g><g clip-path="url(#clip30)"><text fill="#595959" fill-opacity="1" font-family="Calibri,Calibri_MSFontService,sans-serif" font-style="normal" font-variant="normal" font-weight="400" font-stretch="normal" font-size="41" text-anchor="start" direction="ltr" writing-mode="lr-tb" unicode-bidi="normal" text-decoration="none" transform="matrix(1 0 0 1 4331.93 3155)">(16,32)</text></g><g clip-path="url(#clip31)"><text fill="#595959" fill-opacity="1" font-family="Calibri,Calibri_MSFontService,sans-serif" font-style="normal" font-variant="normal" font-weight="400" font-stretch="normal" font-size="41" text-anchor="start" direction="ltr" writing-mode="lr-tb" unicode-bidi="normal" text-decoration="none" transform="matrix(1 0 0 1 4710.29 3155)">(16,64)</text></g><g clip-path="url(#clip32)"><text fill="#595959" fill-opacity="1" font-family="Calibri,Calibri_MSFontService,sans-serif" font-style="normal" font-variant="normal" font-weight="400" font-stretch="normal" font-size="41" text-anchor="start" direction="ltr" writing-mode="lr-tb" unicode-bidi="normal" text-decoration="none" transform="matrix(1 0 0 1 5078.2 3155)">(16,128)</text></g><g clip-path="url(#clip33)"><text fill="#595959" fill-opacity="1" font-family="Calibri,Calibri_MSFontService,sans-serif" font-style="normal" font-variant="normal" font-weight="400" font-stretch="normal" font-size="46" text-anchor="start" direction="ltr" writing-mode="lr-tb" unicode-bidi="normal" text-decoration="none" transform="matrix(6.12323e-17 -1 1 6.12323e-17 2950.98 2717)">speedup</text></g><g clip-path="url(#clip34)"><text fill="#595959" fill-opacity="1" font-family="Calibri,Calibri_MSFontService,sans-serif" font-style="normal" font-variant="normal" font-weight="400" font-stretch="normal" font-size="46" text-anchor="start" direction="ltr" writing-mode="lr-tb" unicode-bidi="normal" text-decoration="none" transform="matrix(1 0 0 1 3948.7 3224)">(batch size,prompt seq len)</text></g><g clip-path="url(#clip35)"><text fill="#595959" fill-opacity="1" font-family="Calibri,Calibri_MSFontService,sans-serif" font-style="normal" font-variant="normal" font-weight="400" font-stretch="normal" font-size="64" text-anchor="start" direction="ltr" writing-mode="lr-tb" unicode-bidi="normal" text-decoration="none" transform="matrix(1 0 0 1 3128.57 1928)">The acceleration of EET on RTX 2080ti GPU to lightseq with different prompt </text></g><g clip-path="url(#clip36)"><text fill="#595959" fill-opacity="1" font-family="Calibri,Calibri_MSFontService,sans-serif" font-style="normal" font-variant="normal" font-weight="400" font-stretch="normal" font-size="64" text-anchor="start" direction="ltr" writing-mode="lr-tb" unicode-bidi="normal" text-decoration="none" transform="matrix(1 0 0 1 4036.3 2006)">length</text></g><g clip-path="url(#clip37)"><rect x="4806" y="2105" width="22" height="22" fill="#4472C4" fill-opacity="1"/></g><g clip-path="url(#clip38)"><text fill="#595959" fill-opacity="1" font-family="Calibri,Calibri_MSFontService,sans-serif" font-style="normal" font-variant="normal" font-weight="400" font-stretch="normal" font-size="41" text-anchor="start" direction="ltr" writing-mode="lr-tb" unicode-bidi="normal" text-decoration="none" transform="matrix(1 0 0 1 4837.96 2127)">EET</text></g><g clip-path="url(#clip39)"><rect x="4928" y="2105" width="23" height="22" fill="#ED7D31" fill-opacity="1"/></g><g clip-path="url(#clip40)"><text fill="#595959" fill-opacity="1" font-family="Calibri,Calibri_MSFontService,sans-serif" font-style="normal" font-variant="normal" font-weight="400" font-stretch="normal" font-size="41" text-anchor="start" direction="ltr" writing-mode="lr-tb" unicode-bidi="normal" text-decoration="none" transform="matrix(1 0 0 1 4960.33 2127)">lightseq</text></g><rect x="2850.5" y="1832.5" width="2538" height="1461" stroke="#D9D9D9" stroke-width="3.4375" stroke-linecap="butt" stroke-linejoin="round" stroke-miterlimit="10" stroke-opacity="1" fill="none"/></g></svg>