<svg width="2548" height="1476" xmlns="http://www.w3.org/2000/svg" xmlns:xlink="http://www.w3.org/1999/xlink" overflow="hidden"><defs><clipPath id="clip0"><rect x="224" y="1819" width="2548" height="1476"/></clipPath><clipPath id="clip1"><rect x="230" y="1823" width="2537" height="1466"/></clipPath><clipPath id="clip2"><rect x="477" y="2199" width="2243" height="890"/></clipPath><clipPath id="clip3"><rect x="477" y="2199" width="2243" height="890"/></clipPath><clipPath id="clip4"><rect x="230" y="1823" width="2537" height="1466"/></clipPath><clipPath id="clip5"><rect x="230" y="1823" width="2537" height="1466"/></clipPath><clipPath id="clip6"><rect x="230" y="1823" width="2537" height="1466"/></clipPath><clipPath id="clip7"><rect x="230" y="1823" width="2537" height="1466"/></clipPath><clipPath id="clip8"><rect x="230" y="1823" width="2537" height="1466"/></clipPath><clipPath id="clip9"><rect x="230" y="1823" width="2537" height="1466"/></clipPath><clipPath id="clip10"><rect x="230" y="1823" width="2537" height="1466"/></clipPath><clipPath id="clip11"><rect x="230" y="1823" width="2537" height="1466"/></clipPath><clipPath id="clip12"><rect x="230" y="1823" width="2537" height="1466"/></clipPath><clipPath id="clip13"><rect x="230" y="1823" width="2537" height="1466"/></clipPath><clipPath id="clip14"><rect x="230" y="1823" width="2537" height="1466"/></clipPath><clipPath id="clip15"><rect x="230" y="1823" width="2537" height="1466"/></clipPath><clipPath id="clip16"><rect x="230" y="1823" width="2537" height="1466"/></clipPath><clipPath id="clip17"><rect x="230" y="1823" width="2537" height="1466"/></clipPath><clipPath id="clip18"><rect x="230" y="1823" width="2537" height="1466"/></clipPath><clipPath id="clip19"><rect x="230" y="1823" width="2537" height="1466"/></clipPath><clipPath id="clip20"><rect x="230" y="1823" width="2537" height="1466"/></clipPath><clipPath id="clip21"><rect x="230" y="1823" width="2537" height="1466"/></clipPath><clipPath id="clip22"><rect x="230" y="1823" width="2537" height="1466"/></clipPath><clipPath id="clip23"><rect x="230" y="1823" width="2537" height="1466"/></clipPath><clipPath id="clip24"><rect x="230" y="1823" width="2537" height="1466"/></clipPath><clipPath id="clip25"><rect x="230" y="1823" width="2537" height="1466"/></clipPath><clipPath id="clip26"><rect x="230" y="1823" width="2537" height="1466"/></clipPath><clipPath id="clip27"><rect x="230" y="1823" width="2537" height="1466"/></clipPath><clipPath id="clip28"><rect x="230" y="1823" width="2537" height="1466"/></clipPath><clipPath id="clip29"><rect x="230" y="1823" width="2537" height="1466"/></clipPath><clipPath id="clip30"><rect x="230" y="1823" width="2537" height="1466"/></clipPath><clipPath id="clip31"><rect x="230" y="1823" width="2537" height="1466"/></clipPath><clipPath id="clip32"><rect x="230" y="1823" width="2537" height="1466"/></clipPath><clipPath id="clip33"><rect x="230" y="1823" width="2537" height="1466"/></clipPath><clipPath id="clip34"><rect x="230" y="1823" width="2537" height="1466"/></clipPath><clipPath id="clip35"><rect x="230" y="1823" width="2537" height="1466"/></clipPath><clipPath id="clip36"><rect x="230" y="1823" width="2537" height="1466"/></clipPath><clipPath id="clip37"><rect x="230" y="1823" width="2537" height="1466"/></clipPath><clipPath id="clip38"><rect x="230" y="1823" width="2537" height="1466"/></clipPath><clipPath id="clip39"><rect x="230" y="1823" width="2537" height="1466"/></clipPath><clipPath id="clip40"><rect x="230" y="1823" width="2537" height="1466"/></clipPath><clipPath id="clip41"><rect x="230" y="1823" width="2537" height="1466"/></clipPath><clipPath id="clip42"><rect x="230" y="1823" width="2537" height="1466"/></clipPath><clipPath id="clip43"><rect x="230" y="1823" width="2537" height="1466"/></clipPath><clipPath id="clip44"><rect x="230" y="1823" width="2537" height="1466"/></clipPath><clipPath id="clip45"><rect x="230" y="1823" width="2537" height="1466"/></clipPath><clipPath id="clip46"><rect x="230" y="1823" width="2537" height="1466"/></clipPath><clipPath id="clip47"><rect x="230" y="1823" width="2537" height="1466"/></clipPath><clipPath id="clip48"><rect x="230" y="1823" width="2537" height="1466"/></clipPath><clipPath id="clip49"><rect x="230" y="1823" width="2537" height="1466"/></clipPath><clipPath id="clip50"><rect x="230" y="1823" width="2537" height="1466"/></clipPath><clipPath id="clip51"><rect x="230" y="1823" width="2537" height="1466"/></clipPath><clipPath id="clip52"><rect x="230" y="1823" width="2537" height="1466"/></clipPath></defs><g clip-path="url(#clip0)" transform="translate(-224 -1819)"><rect x="230" y="1824" width="2537" height="1466" fill="#FFFFFF" fill-opacity="1"/><g clip-path="url(#clip1)"><path d="M477.5 2959.6 2716.5 2959.6M477.5 2832.59 2716.5 2832.59M477.5 2705.59 2716.5 2705.59M477.5 2579.58 2716.5 2579.58M477.5 2452.58 2716.5 2452.58M477.5 2325.58 2716.5 2325.58M477.5 2199.5 2716.5 2199.5" stroke="#D9D9D9" stroke-width="3.4375" stroke-linecap="butt" stroke-linejoin="round" stroke-miterlimit="10" stroke-opacity="1" fill="none" fill-rule="nonzero"/></g><g clip-path="url(#clip2)"><path d="M533.017 2716.09 583.019 2716.09 583.019 3086 533.017 3086ZM757.025 2702.09 807.026 2702.09 807.026 3086 757.025 3086ZM981.032 2680.09 1031.03 2680.09 1031.03 3086 981.032 3086ZM1205.04 2685.09 1255.04 2685.09 1255.04 3086 1205.04 3086ZM1428.05 2646.09 1479.05 2646.09 1479.05 3086 1428.05 3086ZM1652.05 2491.08 1702.06 2491.08 1702.06 3086 1652.05 3086ZM1876.06 2463.08 1926.06 2463.08 1926.06 3086 1876.06 3086ZM2100.07 2468.08 2150.07 2468.08 2150.07 3086 2100.07 3086ZM2324.08 2412.08 2374.08 2412.08 2374.08 3086 2324.08 3086ZM2548.08 2351.08 2598.09 2351.08 2598.09 3086 2548.08 3086Z" fill="#4472C4" fill-rule="nonzero" fill-opacity="1"/></g><g clip-path="url(#clip3)"><path d="M597.02 2833.09 647.021 2833.09 647.021 3086 597.02 3086ZM821.027 2833.09 871.029 2833.09 871.029 3086 821.027 3086ZM1044.03 2833.09 1095.04 2833.09 1095.04 3086 1044.03 3086ZM1268.04 2833.09 1318.04 2833.09 1318.04 3086 1268.04 3086ZM1492.05 2833.09 1542.05 2833.09 1542.05 3086 1492.05 3086ZM1716.06 2833.09 1766.06 2833.09 1766.06 3086 1716.06 3086ZM1940.06 2833.09 1990.07 2833.09 1990.07 3086 1940.06 3086ZM2164.07 2833.09 2214.07 2833.09 2214.07 3086 2164.07 3086ZM2388.08 2833.09 2438.08 2833.09 2438.08 3086 2388.08 3086ZM2612.09 2833.09 2662.09 2833.09 2662.09 3086 2612.09 3086Z" fill="#ED7D31" fill-rule="nonzero" fill-opacity="1"/></g><g clip-path="url(#clip4)"><path d="M477.5 3086.5 2716.5 3086.5" stroke="#D9D9D9" stroke-width="3.4375" stroke-linecap="butt" stroke-linejoin="round" stroke-miterlimit="10" stroke-opacity="1" fill="none" fill-rule="evenodd"/></g><g clip-path="url(#clip5)"><text fill="#404040" fill-opacity="1" font-family="Calibri,Calibri_MSFontService,sans-serif" font-style="normal" font-variant="normal" font-weight="400" font-stretch="normal" font-size="41" text-anchor="start" direction="ltr" writing-mode="lr-tb" unicode-bidi="normal" text-decoration="none" transform="matrix(1 0 0 1 521.486 2684)">1.46 </text></g><g clip-path="url(#clip6)"><text fill="#404040" fill-opacity="1" font-family="Calibri,Calibri_MSFontService,sans-serif" font-style="normal" font-variant="normal" font-weight="400" font-stretch="normal" font-size="41" text-anchor="start" direction="ltr" writing-mode="lr-tb" unicode-bidi="normal" text-decoration="none" transform="matrix(1 0 0 1 745.365 2670)">1.52 </text></g><g clip-path="url(#clip7)"><text fill="#404040" fill-opacity="1" font-family="Calibri,Calibri_MSFontService,sans-serif" font-style="normal" font-variant="normal" font-weight="400" font-stretch="normal" font-size="41" text-anchor="start" direction="ltr" writing-mode="lr-tb" unicode-bidi="normal" text-decoration="none" transform="matrix(1 0 0 1 969.245 2648)">1.60 </text></g><g clip-path="url(#clip8)"><text fill="#404040" fill-opacity="1" font-family="Calibri,Calibri_MSFontService,sans-serif" font-style="normal" font-variant="normal" font-weight="400" font-stretch="normal" font-size="41" text-anchor="start" direction="ltr" writing-mode="lr-tb" unicode-bidi="normal" text-decoration="none" transform="matrix(1 0 0 1 1193.12 2653)">1.58 </text></g><g clip-path="url(#clip9)"><text fill="#404040" fill-opacity="1" font-family="Calibri,Calibri_MSFontService,sans-serif" font-style="normal" font-variant="normal" font-weight="400" font-stretch="normal" font-size="41" text-anchor="start" direction="ltr" writing-mode="lr-tb" unicode-bidi="normal" text-decoration="none" transform="matrix(1 0 0 1 1417 2615)">1.73 </text></g><g clip-path="url(#clip10)"><text fill="#404040" fill-opacity="1" font-family="Calibri,Calibri_MSFontService,sans-serif" font-style="normal" font-variant="normal" font-weight="400" font-stretch="normal" font-size="41" text-anchor="start" direction="ltr" writing-mode="lr-tb" unicode-bidi="normal" text-decoration="none" transform="matrix(1 0 0 1 1640.88 2459)">2.35 </text></g><g clip-path="url(#clip11)"><text fill="#404040" fill-opacity="1" font-family="Calibri,Calibri_MSFontService,sans-serif" font-style="normal" font-variant="normal" font-weight="400" font-stretch="normal" font-size="41" text-anchor="start" direction="ltr" writing-mode="lr-tb" unicode-bidi="normal" text-decoration="none" transform="matrix(1 0 0 1 1864.76 2431)">2.46 </text></g><g clip-path="url(#clip12)"><text fill="#404040" fill-opacity="1" font-family="Calibri,Calibri_MSFontService,sans-serif" font-style="normal" font-variant="normal" font-weight="400" font-stretch="normal" font-size="41" text-anchor="start" direction="ltr" writing-mode="lr-tb" unicode-bidi="normal" text-decoration="none" transform="matrix(1 0 0 1 2088.64 2436)">2.44 </text></g><g clip-path="url(#clip13)"><text fill="#404040" fill-opacity="1" font-family="Calibri,Calibri_MSFontService,sans-serif" font-style="normal" font-variant="normal" font-weight="400" font-stretch="normal" font-size="41" text-anchor="start" direction="ltr" writing-mode="lr-tb" unicode-bidi="normal" text-decoration="none" transform="matrix(1 0 0 1 2312.52 2380)">2.66 </text></g><g clip-path="url(#clip14)"><text fill="#404040" fill-opacity="1" font-family="Calibri,Calibri_MSFontService,sans-serif" font-style="normal" font-variant="normal" font-weight="400" font-stretch="normal" font-size="41" text-anchor="start" direction="ltr" writing-mode="lr-tb" unicode-bidi="normal" text-decoration="none" transform="matrix(1 0 0 1 2536.4 2319)">2.90 </text></g><g clip-path="url(#clip15)"><text fill="#404040" fill-opacity="1" font-family="Calibri,Calibri_MSFontService,sans-serif" font-style="normal" font-variant="normal" font-weight="400" font-stretch="normal" font-size="41" text-anchor="start" direction="ltr" writing-mode="lr-tb" unicode-bidi="normal" text-decoration="none" transform="matrix(1 0 0 1 611.338 2801)">1</text></g><g clip-path="url(#clip16)"><text fill="#404040" fill-opacity="1" font-family="Calibri,Calibri_MSFontService,sans-serif" font-style="normal" font-variant="normal" font-weight="400" font-stretch="normal" font-size="41" text-anchor="start" direction="ltr" writing-mode="lr-tb" unicode-bidi="normal" text-decoration="none" transform="matrix(1 0 0 1 835.218 2801)">1</text></g><g clip-path="url(#clip17)"><text fill="#404040" fill-opacity="1" font-family="Calibri,Calibri_MSFontService,sans-serif" font-style="normal" font-variant="normal" font-weight="400" font-stretch="normal" font-size="41" text-anchor="start" direction="ltr" writing-mode="lr-tb" unicode-bidi="normal" text-decoration="none" transform="matrix(1 0 0 1 1059.1 2801)">1</text></g><g clip-path="url(#clip18)"><text fill="#404040" fill-opacity="1" font-family="Calibri,Calibri_MSFontService,sans-serif" font-style="normal" font-variant="normal" font-weight="400" font-stretch="normal" font-size="41" text-anchor="start" direction="ltr" writing-mode="lr-tb" unicode-bidi="normal" text-decoration="none" transform="matrix(1 0 0 1 1282.98 2801)">1</text></g><g clip-path="url(#clip19)"><text fill="#404040" fill-opacity="1" font-family="Calibri,Calibri_MSFontService,sans-serif" font-style="normal" font-variant="normal" font-weight="400" font-stretch="normal" font-size="41" text-anchor="start" direction="ltr" writing-mode="lr-tb" unicode-bidi="normal" text-decoration="none" transform="matrix(1 0 0 1 1506.86 2801)">1</text></g><g clip-path="url(#clip20)"><text fill="#404040" fill-opacity="1" font-family="Calibri,Calibri_MSFontService,sans-serif" font-style="normal" font-variant="normal" font-weight="400" font-stretch="normal" font-size="41" text-anchor="start" direction="ltr" writing-mode="lr-tb" unicode-bidi="normal" text-decoration="none" transform="matrix(1 0 0 1 1730.74 2801)">1</text></g><g clip-path="url(#clip21)"><text fill="#404040" fill-opacity="1" font-family="Calibri,Calibri_MSFontService,sans-serif" font-style="normal" font-variant="normal" font-weight="400" font-stretch="normal" font-size="41" text-anchor="start" direction="ltr" writing-mode="lr-tb" unicode-bidi="normal" text-decoration="none" transform="matrix(1 0 0 1 1954.62 2801)">1</text></g><g clip-path="url(#clip22)"><text fill="#404040" fill-opacity="1" font-family="Calibri,Calibri_MSFontService,sans-serif" font-style="normal" font-variant="normal" font-weight="400" font-stretch="normal" font-size="41" text-anchor="start" direction="ltr" writing-mode="lr-tb" unicode-bidi="normal" text-decoration="none" transform="matrix(1 0 0 1 2178.5 2801)">1</text></g><g clip-path="url(#clip23)"><text fill="#404040" fill-opacity="1" font-family="Calibri,Calibri_MSFontService,sans-serif" font-style="normal" font-variant="normal" font-weight="400" font-stretch="normal" font-size="41" text-anchor="start" direction="ltr" writing-mode="lr-tb" unicode-bidi="normal" text-decoration="none" transform="matrix(1 0 0 1 2402.38 2801)">1</text></g><g clip-path="url(#clip24)"><text fill="#404040" fill-opacity="1" font-family="Calibri,Calibri_MSFontService,sans-serif" font-style="normal" font-variant="normal" font-weight="400" font-stretch="normal" font-size="41" text-anchor="start" direction="ltr" writing-mode="lr-tb" unicode-bidi="normal" text-decoration="none" transform="matrix(1 0 0 1 2626.26 2801)">1</text></g><g clip-path="url(#clip25)"><text fill="#595959" fill-opacity="1" font-family="Calibri,Calibri_MSFontService,sans-serif" font-style="normal" font-variant="normal" font-weight="400" font-stretch="normal" font-size="41" text-anchor="start" direction="ltr" writing-mode="lr-tb" unicode-bidi="normal" text-decoration="none" transform="matrix(1 0 0 1 357.294 3097)">0.00</text></g><g clip-path="url(#clip26)"><text fill="#595959" fill-opacity="1" font-family="Calibri,Calibri_MSFontService,sans-serif" font-style="normal" font-variant="normal" font-weight="400" font-stretch="normal" font-size="41" text-anchor="start" direction="ltr" writing-mode="lr-tb" unicode-bidi="normal" text-decoration="none" transform="matrix(1 0 0 1 357.294 2970)">0.50</text></g><g clip-path="url(#clip27)"><text fill="#595959" fill-opacity="1" font-family="Calibri,Calibri_MSFontService,sans-serif" font-style="normal" font-variant="normal" font-weight="400" font-stretch="normal" font-size="41" text-anchor="start" direction="ltr" writing-mode="lr-tb" unicode-bidi="normal" text-decoration="none" transform="matrix(1 0 0 1 357.294 2843)">1.00</text></g><g clip-path="url(#clip28)"><text fill="#595959" fill-opacity="1" font-family="Calibri,Calibri_MSFontService,sans-serif" font-style="normal" font-variant="normal" font-weight="400" font-stretch="normal" font-size="41" text-anchor="start" direction="ltr" writing-mode="lr-tb" unicode-bidi="normal" text-decoration="none" transform="matrix(1 0 0 1 357.294 2717)">1.50</text></g><g clip-path="url(#clip29)"><text fill="#595959" fill-opacity="1" font-family="Calibri,Calibri_MSFontService,sans-serif" font-style="normal" font-variant="normal" font-weight="400" font-stretch="normal" font-size="41" text-anchor="start" direction="ltr" writing-mode="lr-tb" unicode-bidi="normal" text-decoration="none" transform="matrix(1 0 0 1 357.294 2590)">2.00</text></g><g clip-path="url(#clip30)"><text fill="#595959" fill-opacity="1" font-family="Calibri,Calibri_MSFontService,sans-serif" font-style="normal" font-variant="normal" font-weight="400" font-stretch="normal" font-size="41" text-anchor="start" direction="ltr" writing-mode="lr-tb" unicode-bidi="normal" text-decoration="none" transform="matrix(1 0 0 1 357.294 2463)">2.50</text></g><g clip-path="url(#clip31)"><text fill="#595959" fill-opacity="1" font-family="Calibri,Calibri_MSFontService,sans-serif" font-style="normal" font-variant="normal" font-weight="400" font-stretch="normal" font-size="41" text-anchor="start" direction="ltr" writing-mode="lr-tb" unicode-bidi="normal" text-decoration="none" transform="matrix(1 0 0 1 357.294 2336)">3.00</text></g><g clip-path="url(#clip32)"><text fill="#595959" fill-opacity="1" font-family="Calibri,Calibri_MSFontService,sans-serif" font-style="normal" font-variant="normal" font-weight="400" font-stretch="normal" font-size="41" text-anchor="start" direction="ltr" writing-mode="lr-tb" unicode-bidi="normal" text-decoration="none" transform="matrix(1 0 0 1 357.294 2210)">3.50</text></g><g clip-path="url(#clip33)"><text fill="#595959" fill-opacity="1" font-family="Calibri,Calibri_MSFontService,sans-serif" font-style="normal" font-variant="normal" font-weight="400" font-stretch="normal" font-size="41" text-anchor="start" direction="ltr" writing-mode="lr-tb" unicode-bidi="normal" text-decoration="none" transform="matrix(1 0 0 1 540.905 3151)">(8,32)</text></g><g clip-path="url(#clip34)"><text fill="#595959" fill-opacity="1" font-family="Calibri,Calibri_MSFontService,sans-serif" font-style="normal" font-variant="normal" font-weight="400" font-stretch="normal" font-size="41" text-anchor="start" direction="ltr" writing-mode="lr-tb" unicode-bidi="normal" text-decoration="none" transform="matrix(1 0 0 1 764.785 3151)">(8,64)</text></g><g clip-path="url(#clip35)"><text fill="#595959" fill-opacity="1" font-family="Calibri,Calibri_MSFontService,sans-serif" font-style="normal" font-variant="normal" font-weight="400" font-stretch="normal" font-size="41" text-anchor="start" direction="ltr" writing-mode="lr-tb" unicode-bidi="normal" text-decoration="none" transform="matrix(1 0 0 1 978.215 3151)">(8,128)</text></g><g clip-path="url(#clip36)"><text fill="#595959" fill-opacity="1" font-family="Calibri,Calibri_MSFontService,sans-serif" font-style="normal" font-variant="normal" font-weight="400" font-stretch="normal" font-size="41" text-anchor="start" direction="ltr" writing-mode="lr-tb" unicode-bidi="normal" text-decoration="none" transform="matrix(1 0 0 1 1202.09 3151)">(8,256)</text></g><g clip-path="url(#clip37)"><text fill="#595959" fill-opacity="1" font-family="Calibri,Calibri_MSFontService,sans-serif" font-style="normal" font-variant="normal" font-weight="400" font-stretch="normal" font-size="41" text-anchor="start" direction="ltr" writing-mode="lr-tb" unicode-bidi="normal" text-decoration="none" transform="matrix(1 0 0 1 1425.97 3151)">(8,384)</text></g><g clip-path="url(#clip38)"><text fill="#595959" fill-opacity="1" font-family="Calibri,Calibri_MSFontService,sans-serif" font-style="normal" font-variant="normal" font-weight="400" font-stretch="normal" font-size="41" text-anchor="start" direction="ltr" writing-mode="lr-tb" unicode-bidi="normal" text-decoration="none" transform="matrix(1 0 0 1 1649.85 3151)">(16,32)</text></g><g clip-path="url(#clip39)"><text fill="#595959" fill-opacity="1" font-family="Calibri,Calibri_MSFontService,sans-serif" font-style="normal" font-variant="normal" font-weight="400" font-stretch="normal" font-size="41" text-anchor="start" direction="ltr" writing-mode="lr-tb" unicode-bidi="normal" text-decoration="none" transform="matrix(1 0 0 1 1873.73 3151)">(16,64)</text></g><g clip-path="url(#clip40)"><text fill="#595959" fill-opacity="1" font-family="Calibri,Calibri_MSFontService,sans-serif" font-style="normal" font-variant="normal" font-weight="400" font-stretch="normal" font-size="41" text-anchor="start" direction="ltr" writing-mode="lr-tb" unicode-bidi="normal" text-decoration="none" transform="matrix(1 0 0 1 2087.16 3151)">(16,128)</text></g><g clip-path="url(#clip41)"><text fill="#595959" fill-opacity="1" font-family="Calibri,Calibri_MSFontService,sans-serif" font-style="normal" font-variant="normal" font-weight="400" font-stretch="normal" font-size="41" text-anchor="start" direction="ltr" writing-mode="lr-tb" unicode-bidi="normal" text-decoration="none" transform="matrix(1 0 0 1 2311.04 3151)">(16,256)</text></g><g clip-path="url(#clip42)"><text fill="#595959" fill-opacity="1" font-family="Calibri,Calibri_MSFontService,sans-serif" font-style="normal" font-variant="normal" font-weight="400" font-stretch="normal" font-size="41" text-anchor="start" direction="ltr" writing-mode="lr-tb" unicode-bidi="normal" text-decoration="none" transform="matrix(1 0 0 1 2534.92 3151)">(16,384)</text></g><g clip-path="url(#clip43)"><text fill="#595959" fill-opacity="1" font-family="Calibri,Calibri_MSFontService,sans-serif" font-style="normal" font-variant="normal" font-weight="400" font-stretch="normal" font-size="46" text-anchor="start" direction="ltr" writing-mode="lr-tb" unicode-bidi="normal" text-decoration="none" transform="matrix(6.12323e-17 -1 1 6.12323e-17 331.604 2723)">speedup</text></g><g clip-path="url(#clip44)"><text fill="#595959" fill-opacity="1" font-family="Calibri,Calibri_MSFontService,sans-serif" font-style="normal" font-variant="normal" font-weight="400" font-stretch="normal" font-size="46" text-anchor="start" direction="ltr" writing-mode="lr-tb" unicode-bidi="normal" text-decoration="none" transform="matrix(1 0 0 1 1343.87 3220)">(batch size,prompt seq len)</text></g><g clip-path="url(#clip45)"><text fill="#595959" fill-opacity="1" font-family="Calibri,Calibri_MSFontService,sans-serif" font-style="normal" font-variant="normal" font-weight="400" font-stretch="normal" font-size="73" text-anchor="start" direction="ltr" writing-mode="lr-tb" unicode-bidi="normal" text-decoration="none" transform="matrix(1 0 0 1 624.043 1928)">The acceleration of EET on RTX 2080ti GPU to lightseq with </text></g><g clip-path="url(#clip46)"><text fill="#595959" fill-opacity="1" font-family="Calibri,Calibri_MSFontService,sans-serif" font-style="normal" font-variant="normal" font-weight="400" font-stretch="normal" font-size="73" text-anchor="start" direction="ltr" writing-mode="lr-tb" unicode-bidi="normal" text-decoration="none" transform="matrix(1 0 0 1 1161.69 2017)">different </text></g><g clip-path="url(#clip47)"><text fill="#595959" fill-opacity="1" font-family="Calibri,Calibri_MSFontService,sans-serif" font-style="normal" font-variant="normal" font-weight="400" font-stretch="normal" font-size="64" text-anchor="start" direction="ltr" writing-mode="lr-tb" unicode-bidi="normal" text-decoration="none" transform="matrix(1 0 0 1 1435.82 2017)">prompt</text></g><g clip-path="url(#clip48)"><text fill="#595959" fill-opacity="1" font-family="Calibri,Calibri_MSFontService,sans-serif" font-style="normal" font-variant="normal" font-weight="400" font-stretch="normal" font-size="73" text-anchor="start" direction="ltr" writing-mode="lr-tb" unicode-bidi="normal" text-decoration="none" transform="matrix(1 0 0 1 1647.48 2017)">length</text></g><g clip-path="url(#clip49)"><rect x="2267" y="2055" width="22" height="23" fill="#4472C4" fill-opacity="1"/></g><g clip-path="url(#clip50)"><text fill="#595959" fill-opacity="1" font-family="Calibri,Calibri_MSFontService,sans-serif" font-style="normal" font-variant="normal" font-weight="400" font-stretch="normal" font-size="41" text-anchor="start" direction="ltr" writing-mode="lr-tb" unicode-bidi="normal" text-decoration="none" transform="matrix(1 0 0 1 2298.87 2077)">EET</text></g><g clip-path="url(#clip51)"><rect x="2390" y="2055" width="22" height="23" fill="#ED7D31" fill-opacity="1"/></g><g clip-path="url(#clip52)"><text fill="#595959" fill-opacity="1" font-family="Calibri,Calibri_MSFontService,sans-serif" font-style="normal" font-variant="normal" font-weight="400" font-stretch="normal" font-size="41" text-anchor="start" direction="ltr" writing-mode="lr-tb" unicode-bidi="normal" text-decoration="none" transform="matrix(1 0 0 1 2421.92 2077)">lightseq</text></g><rect x="230.5" y="1824.5" width="2537" height="1466" stroke="#D9D9D9" stroke-width="3.4375" stroke-linecap="butt" stroke-linejoin="round" stroke-miterlimit="10" stroke-opacity="1" fill="none"/></g></svg>